<svg height="512pt" viewBox="-1 0 512 512" width="512pt" xmlns="http://www.w3.org/2000/svg" fill="#02cbd8"><path d="m216.625 230.855469c0 21.105469 17.171875 38.273437 38.277344 38.273437 21.105468 0 38.277344-17.167968 38.277344-38.273437s-17.171876-38.277344-38.277344-38.277344c-21.105469 0-38.277344 17.171875-38.277344 38.277344zm61.53125 0c0 12.820312-10.429688 23.253906-23.253906 23.253906-12.824219 0-23.257813-10.433594-23.257813-23.253906 0-12.824219 10.433594-23.257813 23.257813-23.257813 12.824218 0 23.253906 10.433594 23.253906 23.257813zm0 0"/><path d="m499.886719 318.902344-104.101563-48.28125v-35.792969l9.648438 4.289063c2.332031 1.035156 4.808594 1.546874 7.269531 1.546874 3.402344 0 6.78125-.976562 9.738281-2.894531 5.09375-3.3125 8.132813-8.917969 8.132813-14.992187v-21.921875c0-6.890625-4.023438-13.238281-10.257813-16.175781l-142.292968-67.054688v-44.875h22.167968c6.511719 0 11.808594-5.296875 11.808594-11.808594v-18.316406c0-6.511719-5.296875-11.808594-11.808594-11.808594h-22.167968v-19.003906c0-6.515625-5.296876-11.8125-11.8125-11.8125h-22.621094c-6.511719 0-11.808594 5.296875-11.808594 11.8125v19.003906h-22.167969c-6.511719 0-11.8125 5.296875-11.8125 11.808594v18.316406c0 6.511719 5.300781 11.808594 11.8125 11.808594h22.167969v44.878906l-64.277344 30.292969c-3.753906 1.769531-5.359375 6.242187-3.59375 9.996094 1.769532 3.75 6.246094 5.359375 9.996094 3.589843l79.9375-37.671874c.675781-.316407 1.453125-.316407 2.132812 0l157.9375 74.429687c.996094.472656 1.640626 1.488281 1.640626 2.589844v21.921875c0 1.347656-.816407 2.082031-1.300782 2.398437-.488281.3125-1.488281.761719-2.722656.214844l-20.113281-8.941406-133.265625-63.734375c-2.050782-.980469-4.433594-.980469-6.484375 0l-46.929688 22.445312-86.335937 41.289063-20.113282 8.941406c-1.238281.546875-2.234374.101563-2.722656-.214844-.484375-.316406-1.300781-1.050781-1.300781-2.398437v-21.921875c0-1.101563.644531-2.117188 1.640625-2.589844l35.757812-16.851563c3.75-1.765624 5.359376-6.242187 3.589844-9.992187-1.769531-3.753906-6.238281-5.363281-9.992187-3.59375l-35.757813 16.851563c-6.230468 2.9375-10.257812 9.285156-10.257812 16.175781v21.921875c0 6.074218 3.039062 11.679687 8.136718 14.992187 5.09375 3.3125 11.453126 3.8125 17.003907 1.347657l9.648437-4.289063v35.988281l-103.675781 48.085938c-6.292969 2.914062-10.359375 9.28125-10.359375 16.21875v16.585937c0 6.179688 3.121094 11.832031 8.347656 15.128907 1.839844 1.160156 3.832032 1.957031 5.886719 2.386718v135.265625c0 4.148438 3.359375 7.511719 7.507813 7.511719h366.53125c.074218 0 .140624-.007812.214843-.011719.070313.003907.136719.011719.210938.011719h99.800781c4.148438 0 7.511719-3.363281 7.511719-7.511719v-135.265625c2.050781-.429687 4.042969-1.226562 5.886719-2.386718 5.226562-3.296876 8.347656-8.949219 8.347656-15.128907v-16.585937c-.003906-6.9375-4.066406-13.304688-10.359375-16.21875zm-236.882813-253.660156v45.300781l-.625-.292969c-4.746094-2.234375-10.191406-2.234375-14.9375 0l-.640625.300781v-45.308593c0-4.148438-3.363281-7.511719-7.511719-7.511719h-26.464843v-11.894531h26.464843c4.148438 0 7.511719-3.363282 7.511719-7.511719v-23.304688h16.203125v23.304688c0 4.148437 3.359375 7.511719 7.507813 7.511719h26.46875v11.894531h-26.46875c-4.144531 0-7.507813 3.363281-7.507813 7.511719zm-148.96875 431.738281h-84.753906v-68.613281h84.753906zm0-83.636719h-84.78125v-47.253906l84.78125-40.546875zm0-104.453125-94.921875 45.398437c-1.234375.589844-2.257812.152344-2.757812-.160156-.5-.316406-1.335938-1.046875-1.335938-2.421875v-16.585937c0-1.109375.648438-2.128906 1.65625-2.59375l97.359375-45.152344zm266.730469 188.089844h-50.226563v-116.984375c0-4.148438-3.359374-7.511719-7.507812-7.511719s-7.511719 3.363281-7.511719 7.511719v116.984375h-121.234375v-136.679688c0-33.421875 27.191406-60.617187 60.617188-60.617187 24.417968 0 46.34375 14.535156 55.855468 37.027344 1.617188 3.820312 6.023438 5.605468 9.84375 3.988281 3.820313-1.613281 5.605469-6.019531 3.988282-9.839844-11.867188-28.0625-39.222656-46.195313-69.6875-46.195313-41.707032 0-75.640625 33.929688-75.640625 75.636719v136.679688h-50.207031v-268.976563l10.152343-4.855468 114.621094-54.816407c.6875-.332031 1.476563-.328125 2.160156-.003906l124.773438 59.675781v268.976563zm100.226563 0h-84.785157v-68.613281h84.785157zm0-83.636719h-84.785157v-87.804688l84.785157 40.550782zm14.230468-61.636719c0 1.375-.835937 2.105469-1.332031 2.421875-.503906.3125-1.523437.75-2.761719.160156l-94.921875-45.398437v-21.515625l97.359375 45.152344c1.007813.464844 1.65625 1.484375 1.65625 2.59375zm0 0"/></svg>