<?xml version="1.0" encoding="utf-8"?>
<!-- Generator: Adobe Illustrator 23.0.2, SVG Export Plug-In . SVG Version: 6.00 Build 0)  -->
<svg version="1.1" xmlns="http://www.w3.org/2000/svg" xmlns:xlink="http://www.w3.org/1999/xlink" x="0px" y="0px"
	 viewBox="0 0 210.01 281" style="opacity: 0.04;" xml:space="preserve" fill="#fff" width="423" height="585">
<g id="Слой_2">
</g>
<g id="Слой_1">
	<g>
		<path d="M43.08,117.22c2.42,1.94,4.66,4.23,7.33,5.73c6.53,3.65,13.13,7.23,19.96,10.27c12.1,5.39,16.76,14.91,15.23,27.42
			c-0.87,7.11-5.42,19.79-5.77,20.85c-0.35,1.06-0.35,1.06-0.31-0.07c0.04-1.13,0.13-4.52,0.61-6.69c0.47-2.11,1.13-4.17,1.6-6.28
			c4.1-18.67,1.03-25.01-15.89-33.87c-7.06-3.7-14.12-7.48-20.77-11.85c-3.12-2.05-5.19-5.82-7.23-9.39c0,0-0.08-0.15,0.09-0.12
			c0.17,0.03,0.45,0.08,0.45,0.08c4.76,1.04,9.24,2.77,14.79,5.19c-11.59-10.43-26-18.14-23.59-36.57c0.01-0.27,1.86,1.55,2.85,2.39
			c0.86,0.73,1.74,1.44,3.36,1.64l-4.61-7.83c-0.16-0.3-0.16-0.35,0.22-0.26c2.33,0.54,4.92,1.43,6.97,2.75
			c8.55,5.47,16.94,11.2,25.46,16.7c8.3,5.36,17.18,9.22,27.57,10.25c-1.48-5.07-3.12-9.58-4.08-14.23
			c-1.62-7.83,0.73-10.88,8.3-12.16c3.19,5.83,6.71,12.25,11.32,20.68l3.55-8.66c5.92-0.98,9.53,1.86,9.28,7.78
			c-0.25,5.91-2.5,11.5-3.74,18.4c4.81-1.33,9.83-1.98,14.15-4.08c7.3-3.55,14.21-7.91,21.17-12.12
			c6.69-4.04,13.21-8.35,19.86-12.45c1.34-0.82,3.04-1.38,4.7-1.5l0,0c-0.7,3-8.77,12.3-10.8,14.67l0,0
			c1.88-1.48,10.62-9.17,12.43-10.59c2.21,18.07-11.44,25.84-21.97,35.78c4.21-1.88,11.55-4.65,13.07-5.21
			c0.35-0.11,0.35-0.11,0.29,0.28c-0.03,0.25-1.27,3.73-2.7,5.32c-3.63,4.06-8.08,7.28-12.7,10.14c-5.08,3.15-10.7,5.4-15.92,8.33
			c-12.73,7.15-16.14,24.17-12.7,35.73c1.5,4.15,1.23,4.6,3.49,9.51c-8.61-8.22-11.52-38.18,7.75-48.25
			c6.34-3.32,12.86-6.29,19.11-9.76c3.13-1.74,5.85-4.22,8.21-7.29c-5.88,2.41-12.27,3.95-18.01,6.58
			c4.83-3.92,9.74-7.88,14.36-12.07c4.13-3.75,13.77-12.03,14.52-17.68c0,0-6.39,6.51-8.01,8.3c-1.62,1.79-10.66,8.32-11.51,8.85
			l0,0c0.69-0.71,15.67-12.94,19.19-23.31c-7.45,5.97-15.2,11.59-22.66,17.56l0,0c6.88-6.81,16-18.33,18.46-21.59l0,0
			c-4.78,2.61-3.1,1.04-12.15,7.66c-9.83,7.45-19.4,15.66-31.59,18.67c-7.49,1.85-10.56,5.58-13.81,12.6
			c-5.37,11.59-6.22,23.16-6.34,35.38c-0.12,11.91-2.48,35.76-2.49,35.88s-0.02,0.13-0.08-0.15c-0.06-0.28-2.03-9.33-2.27-14.03
			c-0.27-5.15-0.28-10.33-0.16-15.49c0.23-9.93-0.66-19.39-5.84-28.39c-4.97-8.64-4.84-17.76,0.79-26.51
			c3.06-4.75,7.82-9.71,7.96-14.68c0.13-4.75-4.8-10.6-7.39-15.47c-1.07-2-1.83-3.16-2.85-5.53c-3.61,2.13-3.26,5.22-2.61,8.05
			c1.11,4.86,2.68,9.61,3.98,14.43c0.46,1.7,0.72,3.46,1.2,5.82c-12.02-0.95-22.32-4.76-31.62-11.1
			c-9.1-6.21-17.93-12.82-27.33-18.72C41.16,91.8,49,96.98,55.48,103.49c-9.02-2.86-14.19-11.25-22.3-15.49
			c3.63,9.81,12.34,15.02,18.85,22.51c-2.59-1.84-5.29-3.54-7.74-5.55c-2.63-2.15-5.03-4.59-7.85-6.56
			c5.18,10.51,15.8,15.58,23.69,23.37c1.23,1.36,1.15,1.46-0.71,1.09 M107.39,108.18c-1.95,2.63-3.44,4.6-4.88,6.61
			c-5.27,7.34-8.24,15.3-5.54,24.37c1.72,5.79,3.93,11.44,6.04,17.5c0.24-0.78,0.45-1.34,0.59-1.92c2.09-8.68,4.11-17.37,6.28-26.03
			C111.6,121.84,111.43,115.26,107.39,108.18z M114.31,112.7c3.02-8.92,3.81-15.75-1.47-17
			C110.52,100.67,106.76,106.94,114.31,112.7z"/>
	</g>
	<rect x="65.01" y="279" width="80" height="2"/>
	<rect x="65.01" width="80" height="2"/>
	<rect x="107.01" y="37" transform="matrix(6.123234e-17 -1 1 6.123234e-17 106.0135 182.0135)" width="74" height="2"/>
	<rect x="29.01" y="37" transform="matrix(6.123234e-17 -1 1 6.123234e-17 28.0135 104.0135)" width="74" height="2"/>
	<rect x="82.01" y="216" transform="matrix(6.123234e-17 -1 1 6.123234e-17 -72.9865 361.0135)" width="124" height="2"/>
	<rect x="4.01" y="216" transform="matrix(6.123234e-17 -1 1 6.123234e-17 -150.9865 283.0135)" width="124" height="2"/>
	<rect x="143.01" y="75" transform="matrix(-1 -1.224647e-16 1.224647e-16 -1 353.0271 152)" width="67" height="2"/>
	<rect x="170.01" y="114" transform="matrix(-1.836970e-16 1 -1 -1.836970e-16 324.0135 -94.0135)" width="78" height="2"/>
	<rect x="143.01" y="153" transform="matrix(-1 -1.224647e-16 1.224647e-16 -1 353.0271 308)" width="67" height="2"/>
	<rect x="0.01" y="75" width="67" height="2"/>
	<rect x="-38" y="114" transform="matrix(-8.980656e-11 1 -1 -8.980656e-11 116 114)" width="78" height="2"/>
	<rect x="0.01" y="153" width="67" height="2"/>
</g>
</svg>
