<?xml version="1.0" encoding="utf-8"?>
<!-- Generator: Adobe Illustrator 23.0.2, SVG Export Plug-In . SVG Version: 6.00 Build 0)  -->
<svg version="1.1" id="Слой_1" xmlns="http://www.w3.org/2000/svg" xmlns:xlink="http://www.w3.org/1999/xlink" x="0px" y="0px"
	 viewBox="0 0 203.5 203.5" style="enable-background:new 0 0 203.5 203.5;" xml:space="preserve" fill="#02cbd8">
<g>
	<path d="M194.1,159.5c3.3,0,6-2.7,6-6V17.9c0-3.3-2.7-6-6-6l0,0h-39.3V6.2c0-3.1-2.2-5.8-5.2-6.2c-3.7-0.5-6.8,2.4-6.8,6v5.9h-35.1
		V6.2c0-3.1-2.2-5.8-5.2-6.2c-3.7-0.5-6.8,2.4-6.8,6v5.9H62.2l0-5.7C62.2,3.1,60,0.4,57,0c-3.7-0.5-6.8,2.4-6.8,6v5.9H9.4
		c-3.3,0-6,2.7-6,6v135.6c0,3.3,2.7,6,6,6 M50.2,23.9v5.4c0,3.3,2.7,6,6,6s6-2.7,6-6v-5.4h33.6v5.4c0,3.3,2.7,6,6,6s6-2.7,6-6v-5.4
		h35.1v5.4c0,3.3,2.7,6,6,6s6-2.7,6-6v-5.4h33.3v24.5H15.4V23.9H50.2z M44.7,147.5H15.4v-87h172.7v87h-29.3h0"/>
</g>
</svg>
