<svg xmlns="http://www.w3.org/2000/svg" width="45" height="45" viewBox="0 0 45 45"><defs><clipPath id="4p4xa"><path fill="#fff" d="M22.5 0C34.926 0 45 10.073 45 22.5 45 34.926 34.926 45 22.5 45S0 34.926 0 22.5C0 10.073 10.074 0 22.5 0z"/></clipPath></defs><g><g opacity="-1"><path fill="none" stroke="#e72b45" stroke-miterlimit="20" stroke-width="4" d="M22.5 0C34.926 0 45 10.073 45 22.5 45 34.926 34.926 45 22.5 45S0 34.926 0 22.5C0 10.073 10.074 0 22.5 0z" clip-path="url(&quot;#4p4xa&quot;)"/></g><g opacity="-1"><path fill="#e72b45" d="M22.41 10.91c6.351 0 11.5 5.149 11.5 11.5 0 6.352-5.149 11.501-11.5 11.501s-11.5-5.149-11.5-11.5c0-6.352 5.149-11.501 11.5-11.501z"/></g></g></svg>